# xmcd
#
# Track frame offsets: 
#        150
#        28051
#        44701
#        56176
#        84377
#        107928
#        141229
#        170855
#        202131
#        220732
#        247433
#        274509
#
# Disc length: 3954 seconds
#
# Revision: 2
# Processed by: cddbd v1.5.2PL0 Copyright (c) Steve Scherf et al.
# Submitted via: ExactAudioCopy v0.99pb5
#
DISCID=c70f700c
DTITLE=John Di Martino's Romantic Jazz Trio - So In Love
DYEAR=2005
DGENRE=Jazz
TTITLE0=Softy As In A Morning Sunrise <S. Romberg>
TTITLE1=Michelle <J. Lennon>
TTITLE2=Vesti La Giubba <R. Leoncavallo>
TTITLE3=Lamento Borincano <R. Hernandez>
TTITLE4=So In Love <C. Porter>
TTITLE5=Love Is Stronger Than Us <F. Lei>
TTITLE6=When I Look In Your Eyes <L. Bricusse>
TTITLE7=Summertime <G. Gershwin>
TTITLE8=Moment To Moment <H. Mancini>
TTITLE9=Hush A Bye <Trad.>
TTITLE10=What Are You Doing The Rest Of Your Life <M.Legrand>
TTITLE11=Murmullo <H. Rosell>
EXTD=YEAR: 2005
EXTT0=
EXTT1=
EXTT2=
EXTT3=
EXTT4=
EXTT5=
EXTT6=
EXTT7=
EXTT8=
EXTT9=
EXTT10=
EXTT11=
PLAYORDER=
